<svg width="64" height="18" viewBox="0 0 64 18" fill="none" xmlns="http://www.w3.org/2000/svg">
<path fill-rule="evenodd" clip-rule="evenodd" d="M64 5.37837C63.2798 2.63066 61.5314 1.53998 59.1448 1.53998C57.2111 1.53998 54.7843 2.63066 54.7843 5.25713C54.7843 6.95399 55.9566 8.28758 57.8694 8.63115L59.6797 8.95415C60.9142 9.17627 61.2639 9.64108 61.2639 10.2674C61.2639 10.9745 60.5028 11.3784 59.3714 11.3784C57.8904 11.3784 56.9646 10.8532 56.8205 9.37826L54.2082 9.78245C54.6193 12.6308 57.17 13.8029 59.4739 13.8029C61.6547 13.8029 63.9793 12.5501 63.9793 10.0249C63.9793 8.30749 62.9299 7.05531 60.9756 6.69117L58.9805 6.3279C57.8694 6.12591 57.4994 5.58035 57.4994 5.05515C57.4994 4.38835 58.2192 3.96447 59.2067 3.96447C60.4617 3.96447 61.3461 4.38835 61.3873 5.78234L64 5.37837ZM5.925 9.70125L8.6399 1.84284H11.8283L7.09686 13.4994H4.73146L0 1.84306H3.18843L5.925 9.70125ZM22.6083 5.17636C22.6083 6.10554 21.8678 6.75198 21.0036 6.75198C20.1397 6.75198 19.3993 6.10554 19.3993 5.17636C19.3993 4.24696 20.1397 3.60074 21.0036 3.60074C21.8678 3.60074 22.6086 4.24696 22.6086 5.17636H22.6083ZM23.1021 9.29774C22.0321 10.6711 20.9008 11.6206 18.9053 11.6207C16.8693 11.6207 15.285 10.4086 14.0507 8.63094C13.5569 7.90353 12.7958 7.74203 12.2402 8.12587C11.726 8.48958 11.6029 9.25725 12.0757 9.92405C13.783 12.4897 16.1487 13.9843 18.9051 13.9843C21.4357 13.9843 23.4107 12.7724 24.9533 10.7521C25.5291 10.0048 25.5086 9.23712 24.9533 8.8128C24.4388 8.40839 23.6777 8.55041 23.1021 9.29774ZM30.2 7.64093C30.2 10.0249 31.5989 11.2776 33.1625 11.2776C34.6434 11.2776 36.1659 10.1057 36.1659 7.64093C36.1659 5.21645 34.6434 4.04502 33.1828 4.04502C31.5989 4.04502 30.2 5.15605 30.2 7.64093ZM30.2 3.45938V1.86297H27.2996V17.54H30.2V11.964C31.1669 13.2571 32.4217 13.8029 33.8409 13.8029C36.4951 13.8029 39.0868 11.7421 39.0868 7.49975C39.0868 3.43881 36.392 1.54018 34.0879 1.54018C32.257 1.54018 31.0025 2.36826 30.2 3.45938ZM44.1276 7.64093C44.1276 10.0249 45.5262 11.2776 47.0898 11.2776C48.5708 11.2776 50.093 10.1057 50.093 7.64093C50.093 5.21645 48.5708 4.04502 47.1102 4.04502C45.5262 4.04502 44.1273 5.15605 44.1273 7.64093H44.1276ZM44.1276 3.45938V1.86297H44.1273H41.227V17.54H44.1273V11.964C45.0943 13.2571 46.349 13.8029 47.7683 13.8029C50.4222 13.8029 53.0142 11.7421 53.0142 7.49975C53.0142 3.43881 50.3194 1.54018 48.0152 1.54018C46.1843 1.54018 44.9298 2.36826 44.1276 3.45938Z" fill="white"/>
</svg>
